<?xml version="1.0" encoding="iso-8859-1"?>
<!-- Generator: Adobe Illustrator 19.0.0, SVG Export Plug-In . SVG Version: 6.00 Build 0)  -->
<svg version="1.1" id="Layer_1" xmlns="http://www.w3.org/2000/svg" xmlns:xlink="http://www.w3.org/1999/xlink" x="0px" y="0px"
	 viewBox="0 0 512 512" style="enable-background:new 0 0 512 512;" xml:space="preserve">
<g>
	<path style="fill:#E8CE85;" d="M79.483,310.431l-68.44,154.156l156.681-70.55v-49.938l-44.138,1.642l6.056-35.31H79.483z"/>
	<path style="fill:#ECBA16;" d="M167.724,394.033l261.535-262.162l-87.384-87.393L79.484,310.427"/>
	<path d="M26.483,504.638H8.828c-4.882,0-8.828-3.946-8.828-8.828c0-4.882,3.946-8.828,8.828-8.828h17.655
		c4.882,0,8.828,3.946,8.828,8.828C35.31,500.692,31.364,504.638,26.483,504.638 M79.448,504.638H61.793
		c-4.882,0-8.828-3.946-8.828-8.828c0-4.882,3.946-8.828,8.828-8.828h17.655c4.882,0,8.828,3.946,8.828,8.828
		C88.276,500.692,84.33,504.638,79.448,504.638 M132.414,504.638h-17.655c-4.882,0-8.828-3.946-8.828-8.828
		c0-4.882,3.946-8.828,8.828-8.828h17.655c4.882,0,8.828,3.946,8.828,8.828C141.241,500.692,137.295,504.638,132.414,504.638
		 M185.379,504.638h-17.655c-4.882,0-8.828-3.946-8.828-8.828c0-4.882,3.946-8.828,8.828-8.828h17.655
		c4.882,0,8.828,3.946,8.828,8.828C194.207,500.692,190.261,504.638,185.379,504.638 M238.345,504.638H220.69
		c-4.882,0-8.828-3.946-8.828-8.828c0-4.882,3.946-8.828,8.828-8.828h17.655c4.882,0,8.828,3.946,8.828,8.828
		C247.172,500.692,243.226,504.638,238.345,504.638 M291.31,504.638h-17.655c-4.882,0-8.828-3.946-8.828-8.828
		c0-4.882,3.946-8.828,8.828-8.828h17.655c4.882,0,8.828,3.946,8.828,8.828C300.138,500.692,296.192,504.638,291.31,504.638
		 M344.276,504.638h-17.655c-4.882,0-8.828-3.946-8.828-8.828c0-4.882,3.946-8.828,8.828-8.828h17.655
		c4.882,0,8.828,3.946,8.828,8.828C353.103,500.692,349.158,504.638,344.276,504.638 M397.241,504.638h-17.655
		c-4.882,0-8.828-3.946-8.828-8.828c0-4.882,3.946-8.828,8.828-8.828h17.655c4.882,0,8.828,3.946,8.828,8.828
		C406.069,500.692,402.123,504.638,397.241,504.638 M450.207,504.638h-17.655c-4.882,0-8.828-3.946-8.828-8.828
		c0-4.882,3.946-8.828,8.828-8.828h17.655c4.882,0,8.828,3.946,8.828,8.828C459.034,500.692,455.089,504.638,450.207,504.638
		 M503.172,504.638h-17.655c-4.882,0-8.828-3.946-8.828-8.828c0-4.882,3.946-8.828,8.828-8.828h17.655
		c4.882,0,8.828,3.946,8.828,8.828C512,500.692,508.054,504.638,503.172,504.638"/>
	<g>
		<path style="fill:#B78D14;" d="M235.758,209.353c-2.26,0-4.52-0.865-6.241-2.586c-3.452-3.452-3.452-9.031,0-12.482
			L335.625,88.168c3.452-3.443,9.039-3.443,12.491,0c3.443,3.452,3.443,9.039,0,12.491L241.999,206.767
			C240.278,208.488,238.018,209.353,235.758,209.353"/>
		<path style="fill:#B78D14;" d="M310.664,209.353c-2.26,0-4.52-0.865-6.241-2.586c-3.452-3.452-3.452-9.031,0-12.482l6.241-6.241
			c3.452-3.452,9.031-3.452,12.482,0s3.452,9.031,0,12.482l-6.241,6.241C315.184,208.488,312.924,209.353,310.664,209.353"/>
		<path style="fill:#B78D14;" d="M185.819,259.293c-2.26,0-4.52-0.865-6.241-2.586c-3.452-3.452-3.452-9.031,0-12.482l18.732-18.723
			c3.452-3.452,9.031-3.452,12.482,0c3.452,3.443,3.452,9.031,0,12.482l-18.732,18.723
			C190.339,258.428,188.079,259.293,185.819,259.293"/>
		<path style="fill:#B78D14;" d="M185.819,259.293c-2.26,0-4.52-0.865-6.241-2.586c-3.452-3.452-3.452-9.031,0-12.482l24.973-24.964
			c3.452-3.452,9.039-3.452,12.482,0c3.452,3.443,3.452,9.031,0,12.482l-24.973,24.964
			C190.339,258.428,188.079,259.293,185.819,259.293"/>
		<path style="fill:#B78D14;" d="M167.095,352.922c-2.26,0-4.52-0.865-6.241-2.586c-3.452-3.452-3.452-9.031,0-12.482
			l149.813-149.813c3.443-3.443,9.031-3.443,12.482,0c3.443,3.452,3.443,9.039,0,12.482L173.336,350.336
			C171.614,352.057,169.355,352.922,167.095,352.922"/>
		<path style="fill:#B78D14;" d="M341.87,178.146c-2.26,0-4.52-0.865-6.241-2.586c-3.452-3.452-3.452-9.031,0-12.482l37.455-37.447
			c3.452-3.452,9.039-3.452,12.482,0c3.452,3.443,3.452,9.031,0,12.482l-37.455,37.447
			C346.39,177.281,344.13,178.146,341.87,178.146"/>
		<path style="fill:#B78D14;" d="M129.646,319.258c-2.18,0-4.361-0.803-6.065-2.41c-3.54-3.354-3.699-8.942-0.353-12.482
			l33.095-35.001c3.337-3.558,8.942-3.699,12.491-0.344c3.531,3.346,3.69,8.934,0.344,12.482l-33.095,35.001
			C134.325,318.34,131.994,319.258,129.646,319.258"/>
	</g>
	<path style="fill:#D75A4A;" d="M341.874,44.479l20.904-20.904c21.31-21.31,60.31-22.722,85.442,2.41l0.892,0.892
		c25.132,25.132,22.36,62.782,1.059,84.083l-20.904,20.904L341.874,44.479z"/>
	<path style="fill:#B78D14;" d="M398.052,159.423c-2.26,0-4.52-0.865-6.241-2.586l-74.902-74.902c-3.452-3.452-3.452-9.039,0-12.482
		c3.443-3.452,9.031-3.452,12.482,0l74.902,74.902c3.452,3.452,3.452,9.031,0,12.482
		C402.572,158.558,400.312,159.423,398.052,159.423"/>
	<path d="M41.563,395.233l-30.517,69.358L80.44,434.11L41.563,395.233z"/>
</g>
<g>
</g>
<g>
</g>
<g>
</g>
<g>
</g>
<g>
</g>
<g>
</g>
<g>
</g>
<g>
</g>
<g>
</g>
<g>
</g>
<g>
</g>
<g>
</g>
<g>
</g>
<g>
</g>
<g>
</g>
</svg>
